<?xml version="1.0" encoding="iso-8859-1"?>
<!-- Generator: Adobe Illustrator 19.0.0, SVG Export Plug-In . SVG Version: 6.00 Build 0)  -->
<svg version="1.1" id="Capa_1" xmlns="http://www.w3.org/2000/svg" xmlns:xlink="http://www.w3.org/1999/xlink" x="0px" y="0px"
	 viewBox="0 0 490 490" style="enable-background:new 0 0 490 490;" xml:space="preserve">
<path d="M171.14,343.624V118.433H67.54l-3.05,3.45C61.858,124.872,0,196.121,0,295.811v119.172h87.425
	c7.843,18.208,25.956,30.993,46.998,30.993c21.039,0,39.148-12.785,46.989-30.993h122.441c7.841,18.208,25.95,30.993,46.99,30.993
	c21.039,0,39.147-12.785,46.989-30.993H490v-71.359H171.14z M175.264,364.04h134.737c-6.417,8.511-10.242,19.08-10.295,30.526
	H185.558C185.505,383.12,181.68,372.551,175.264,364.04z M76.976,138.85h73.747v93.44H29.572
	C43.305,184.199,68.532,149.543,76.976,138.85z M83.278,394.566H20.417v-98.755c0-15.074,1.588-29.507,4.243-43.105h126.063v93.599
	c-5.124-1.729-10.601-2.681-16.3-2.681C106.301,343.624,83.407,366.454,83.278,394.566z M134.423,425.56
	c-16.948,0-30.735-13.797-30.735-30.754c0-16.968,13.788-30.766,30.735-30.766c16.942,0,30.724,13.798,30.724,30.766
	C165.148,411.763,151.365,425.56,134.423,425.56z M350.842,425.56c-16.943,0-30.725-13.797-30.725-30.754
	c0-16.968,13.782-30.766,30.725-30.766c16.942,0,30.724,13.798,30.724,30.766C381.566,411.763,367.784,425.56,350.842,425.56z
	 M469.583,394.566h-67.607c-0.053-11.446-3.878-22.016-10.294-30.526h77.901V394.566z"/>
<path d="M221.084,90.369c0-11.192-5.583-34.156-38.83-46.346h-78.775V64.44h74.489c7.407,3.608,22.699,13.329,22.699,24.395v221.402
	H490V90.369H221.084z M469.583,289.82H221.084V110.786h248.499V289.82z"/>
<g>
</g>
<g>
</g>
<g>
</g>
<g>
</g>
<g>
</g>
<g>
</g>
<g>
</g>
<g>
</g>
<g>
</g>
<g>
</g>
<g>
</g>
<g>
</g>
<g>
</g>
<g>
</g>
<g>
</g>
</svg>
