<svg width="46" height="50" viewBox="0 0 46 50" fill="none" xmlns="http://www.w3.org/2000/svg">
<g id="Group">
<path id="Vector" d="M1.05677 16.5308C1.61964 11.5845 4.07427 7.15384 7.96963 4.05375C11.303 1.40112 15.3118 0 19.5626 0C25.2808 0 30.6006 2.56306 34.156 7.0325C37.2561 10.9279 38.6538 15.7966 38.0909 20.7428C37.5281 25.689 35.0734 30.1197 31.1781 33.2189C27.8447 35.8723 23.8366 37.2735 19.5858 37.2735C13.8676 37.2735 8.54785 34.7096 4.99163 30.2402C1.89069 26.3457 0.493912 21.4769 1.05677 16.5308ZM6.3378 29.1695C9.5661 33.2258 14.3945 35.5531 19.5851 35.5531C23.4425 35.5531 27.0806 34.2802 30.1058 31.8729C33.6414 29.0603 35.8696 25.0384 36.38 20.5491C36.8903 16.0599 35.6226 11.6396 32.8092 8.10486C29.5817 4.04856 24.7534 1.7213 19.5619 1.7213C15.7044 1.7213 12.0664 2.99336 9.04029 5.40151C5.50472 8.21498 3.27646 12.236 2.76612 16.7253C2.25651 21.2152 3.52422 25.6339 6.3378 29.1695Z" fill="white"/>
<path id="Vector_2" d="M10.2529 8.30611C9.95683 7.93426 10.0188 7.39299 10.3906 7.09684C16.7551 2.03278 26.0511 3.09053 31.1144 9.45418C33.5672 12.5371 34.6732 16.3902 34.2282 20.3037C33.7823 24.2171 31.8399 27.7243 28.7579 30.1772C28.5995 30.3029 28.4102 30.3639 28.2225 30.3639C27.9695 30.3639 27.7191 30.2529 27.5486 30.0395C27.2526 29.6677 27.3145 29.1264 27.6864 28.8303C30.4095 26.6639 32.1248 23.5665 32.5181 20.11C32.9115 16.6528 31.9346 13.2488 29.7675 10.5265C25.2955 4.90638 17.0839 3.97177 11.4629 8.4446C11.0903 8.7381 10.5489 8.67786 10.2529 8.30611Z" fill="white"/>
<path id="Vector_3" d="M9.38019 26.7491C10.1548 27.7224 11.0585 28.578 12.0671 29.2888C12.4553 29.5625 12.5482 30.0996 12.2737 30.4886C12.1059 30.7261 11.8399 30.8526 11.5697 30.8526C11.3984 30.8526 11.2255 30.8009 11.074 30.6951C9.93183 29.8895 8.90849 28.9221 8.03243 27.8205C7.73639 27.4486 7.79833 26.9064 8.17018 26.6112C8.54278 26.3144 9.08415 26.3773 9.38019 26.7491Z" fill="white"/>
<path id="Vector_4" d="M43.6285 48.8665C42.6946 49.6101 41.556 50 40.3571 50C40.0765 50 39.7934 49.9785 39.5085 49.9354C38.0282 49.7116 36.6838 48.9233 35.7224 47.7148L27.6296 37.5435C27.3336 37.1716 27.3955 36.6304 27.7673 36.3342C28.1392 36.039 28.6805 36.1001 28.9766 36.472L37.0694 46.6434C37.7588 47.5101 38.7167 48.0756 39.7659 48.234C40.7926 48.3872 41.7824 48.135 42.5561 47.5196C44.1724 46.2321 44.3429 43.7456 42.9339 41.9761L34.8403 31.8048C34.5443 31.4329 34.6062 30.8916 34.978 30.5955C35.3499 30.3003 35.8903 30.3614 36.1873 30.7332L44.2818 40.9046C46.2802 43.4168 45.9875 46.9886 43.6285 48.8665Z" fill="white"/>
</g>
</svg>
