<svg width="62" height="40" viewBox="0 0 62 40" fill="none" xmlns="http://www.w3.org/2000/svg">
<path d="M60 0H1.25C0.55975 0 0 0.55975 0 1.25V38.75C0 39.4403 0.55975 40 1.25 40H60C60.6903 40 61.25 39.4403 61.25 38.75V1.25C61.25 0.55975 60.6903 0 60 0ZM55.4595 2.5L30.625 17.295L5.7905 2.5H55.4595ZM58.75 37.5H2.5V3.44963L21.3509 14.6799L7.97412 25.2699L9.52588 27.2301L23.6491 16.0492L29.9851 19.8239C30.1824 19.9412 30.4036 20 30.625 20C30.8464 20 31.0676 19.9412 31.2647 19.8239L37.6007 16.0492L51.724 27.2301L53.2757 25.2699L39.8991 14.68L58.75 3.44963V37.5Z" fill="white"/>
</svg>
