<svg width="50" height="50" viewBox="0 0 50 50" fill="none" xmlns="http://www.w3.org/2000/svg">
<path d="M37 0H13C9.55219 0 6.24558 1.36964 3.80761 3.80761C1.36964 6.24558 0 9.55219 0 13V37C0 40.4478 1.36964 43.7544 3.80761 46.1924C6.24558 48.6304 9.55219 50 13 50H37C40.4478 50 43.7544 48.6304 46.1924 46.1924C48.6304 43.7544 50 40.4478 50 37V13C50 9.55219 48.6304 6.24558 46.1924 3.80761C43.7544 1.36964 40.4478 0 37 0ZM26 48V31C26 30.7348 25.8946 30.4804 25.7071 30.2929C25.5196 30.1054 25.2652 30 25 30H20V24H25C25.2652 24 25.5196 23.8946 25.7071 23.7071C25.8946 23.5196 26 23.2652 26 23V15C26 13.6739 26.5268 12.4021 27.4645 11.4645C28.4021 10.5268 29.6739 10 31 10H39V16H35C34.2043 16 33.4413 16.3161 32.8787 16.8787C32.3161 17.4413 32 18.2044 32 19V23C32 23.2652 32.1054 23.5196 32.2929 23.7071C32.4804 23.8946 32.7348 24 33 24H39V30H33C32.7348 30 32.4804 30.1054 32.2929 30.2929C32.1054 30.4804 32 30.7348 32 31V48H26ZM48 37C48 39.9174 46.8411 42.7153 44.7782 44.7782C42.7153 46.8411 39.9174 48 37 48H34V32H40C40.2652 32 40.5196 31.8946 40.7071 31.7071C40.8946 31.5196 41 31.2652 41 31V23C41 22.7348 40.8946 22.4804 40.7071 22.2929C40.5196 22.1054 40.2652 22 40 22H34V19C34 18.7348 34.1054 18.4804 34.2929 18.2929C34.4804 18.1054 34.7348 18 35 18H40C40.2652 18 40.5196 17.8946 40.7071 17.7071C40.8946 17.5196 41 17.2652 41 17V9C41 8.73478 40.8946 8.48043 40.7071 8.29289C40.5196 8.10536 40.2652 8 40 8H31C29.1435 8 27.363 8.7375 26.0503 10.0503C24.7375 11.363 24 13.1435 24 15V22H19C18.7348 22 18.4804 22.1054 18.2929 22.2929C18.1054 22.4804 18 22.7348 18 23V31C18 31.2652 18.1054 31.5196 18.2929 31.7071C18.4804 31.8946 18.7348 32 19 32H24V48H13C10.0826 48 7.28473 46.8411 5.22183 44.7782C3.15893 42.7153 2 39.9174 2 37V13C2 10.0826 3.15893 7.28473 5.22183 5.22183C7.28473 3.15893 10.0826 2 13 2H37C39.9174 2 42.7153 3.15893 44.7782 5.22183C46.8411 7.28473 48 10.0826 48 13V37Z" fill="white"/>
</svg>
